<svg fill="none" height="863" viewBox="0 0 1338 863" width="1338" xmlns="http://www.w3.org/2000/svg" xmlns:xlink="http://www.w3.org/1999/xlink"><clipPath id="a"><path d="m0 0h1338v863h-1338z"/></clipPath><g clip-path="url(#a)"><path d="m615.62 862.19c317.862 0 575.54-14.345 575.54-32.04s-257.678-32.04-575.54-32.04-575.5404 14.345-575.5404 32.04 257.6784 32.04 575.5404 32.04z" fill="#e6e7e8"/><path d="m1225.75 809.96c36.07-1.92 76.01-11.31 98.08-34.13 10.87-11.24 15.89-25.62 12.94-41.6-3.33-18.05-17.79-34.41-20.99-52.52-3.3-18.65 11.32-25.45 17.96-40.17 7.52-16.65 3.66-37.78-10.54-54.42-7.18-8.41-16.84-15.52-27.77-19.91-11.66-4.68-24.7-3.95-31.22-15.76-3.94-7.14-3.55-14.88-2.21-21.98 3.44-18.17 12.45-34.47 19.68-51.34 2.88-6.7 5.15-15.05-.76-21.53-11.99-13.13-41.15-9.92-53.8-4.9-13.58 5.39-23.36 16.08-26.43 28.88-2.72 11.32-.98 25.1-10.7 32.47-6.72 5.1-17.08 5.5-25.95 7.88-15.91 4.27-17.34 17.21-13.08 30.78 5.15 16.41 10.52 32.83.73 46.82-8.61 12.31-25.27 18.57-36.05 29.46-3.62 3.66-6.63 8.07-6.62 13.21.05 18.19 26.08 31.28 28.16 50.38 1 9.17-.85 17.96-2.04 26.8-4.06 30.15 7.52 61.1 40.11 82.81 30.24 20.15 71.95 25.05 101.14 11.88" fill="#8bdeec"/><path d="m1207.22 804.2c-.09 0-.18 0-.27-.01-1.55-.15-2.68-1.52-2.54-3.06l21.12-222.8c.15-1.54 1.52-2.7 3.06-2.53 1.55.15 2.68 1.52 2.54 3.06l-21.12 222.8c-.14 1.45-1.36 2.54-2.79 2.54z" fill="#fff"/><path d="m1217.78 692.8c-1.08 0-2.11-.63-2.58-1.69-.62-1.42.03-3.08 1.45-3.7l63.02-27.47c1.42-.61 3.08.03 3.7 1.45s-.03 3.08-1.45 3.7l-63.02 27.47c-.36.17-.75.24-1.12.24z" fill="#fff"/><path d="m1221.52 646.68c-1.08 0-2.11-.63-2.58-1.69-.62-1.42.03-3.08 1.45-3.7l63.02-27.47c1.42-.62 3.08.03 3.7 1.45s-.03 3.08-1.45 3.7l-63.02 27.47c-.36.17-.74.24-1.12.24z" fill="#fff"/><path d="m1219.8 671.46c-.38 0-.76-.08-1.13-.24l-56.41-24.78c-1.42-.62-2.07-2.28-1.44-3.7s2.28-2.06 3.7-1.44l56.41 24.78c1.42.62 2.07 2.28 1.44 3.7-.46 1.06-1.49 1.68-2.57 1.68z" fill="#fff"/><path d="m1172.73 753.42c.2-.7.37-1.4.53-2.11 2.12-9.9-1.02-19.28-9.14-25.06-6.41-4.57-16.84-5.98-19.34-14.65-1.17-4.06.2-8.41 1.92-12.27s3.84-7.68 4.23-11.89-1.54-9.03-5.57-10.33c-2.92-.94-6.09.15-9.14-.15-11.37-1.15-7.49-13.96-10.59-21.27-1.32-3.1-4.09-5.8-7.45-6.08-3.58-.31-6.76 2.04-9.88 3.81s-7.34 2.95-10.08.63c-2.87-2.43-2.19-7.02-.78-10.52 3.45-8.59 9.6-15.8 16.09-22.4 2.67-2.71 5.56-5.63 6.1-9.4.69-4.78-2.74-9.27-6.74-11.97-9.85-6.66-21.64-11.17-33.1-14.07-12.32-3.12-39.29-3.77-37.89 16.34.84 11.99 18.72 31 5.02 40.91-6.71 4.85-22.44 3.31-18.11 15.81.9 2.61 2.24 5.08 2.86 7.78 2.4 10.32-5.98 18.4-6.41 28.28-.36 8.27 7.7 14.87 13.2 19.83 2.5 2.25 4.75 5.35 4.3 8.68-.26 1.95-1.41 3.66-1.95 5.56-1 3.52.2 7.25.44 10.9.52 7.8-6.67 8.88-9.25 15.08-5.69 13.68 21.51 13.17 27.26 20.53 4.77 6.12 3.73 14.53 7.22 21.21 7.54 14.42 31.3 18.12 45.74 19.33 9.54.8 19.8-.94 26.99-7.26 7.86-6.91 10.43-17.35 15.02-26.34 5.37-10.59 15.13-17.09 18.5-28.91z" fill="#37c1d3"/><path clip-rule="evenodd" d="m1111.99 818.71c1.54.13 3.05.19 4.54.19 9.89 0 18.49-2.83 24.53-8.14 6.15-5.41 9.24-12.62 12.23-19.6 1.13-2.65 2.21-5.16 3.44-7.58 2.11-4.14 4.93-7.61 7.92-11.28l.01-.015c4.26-5.235 8.66-10.652 10.78-18.085.21-.75.4-1.51.57-2.29 2.4-11.21-1.43-21.66-10.25-27.94-2.17-1.557-4.7-2.739-7.15-3.886l-.16-.074-.03-.015c-4.92-2.294-9.57-4.465-10.93-9.175-.98-3.41.44-7.32 1.79-10.35l.93-2.03c1.56-3.34 3.16-6.8 3.53-10.74.49-5.23-1.93-11.47-7.5-13.27-2.25-.733-4.46-.544-6.43-.375l-.05.005-.09.008c-1.13.097-2.2.189-3.16.092-5.01-.51-5.81-3.51-6.53-10.75v-.01c-.3-3.007-.61-6.123-1.76-8.81-1.86-4.38-5.71-7.44-9.8-7.79-3.92-.338-7.15 1.587-10.03 3.3l-.05.03-1.43.84c-2.2 1.25-5.32 2.24-6.88.93-1.61-1.37-1-4.81.01-7.33 3.43-8.55 9.75-15.66 15.53-21.53l.01-.015c2.89-2.936 6.15-6.253 6.82-10.905.9-6.26-3.52-11.7-7.95-14.7-9.19-6.22-20.62-11.08-33.98-14.46-8.08-2.05-25.91-3.81-35.46 4.18-4.3 3.6-6.35 8.82-5.91 15.08.32 4.512 2.58 9.471 4.98 14.728l.03.062c5.08 11.12 7.91 18.78 1.17 23.65-1.69 1.228-4.45 2.054-7.12 2.857l-.08.023-.03.01c-4.75 1.427-9.66 2.899-11.81 7.1-1.27 2.47-1.29 5.5-.08 9.01.32.922.69 1.829 1.07 2.733.04.116.09.231.14.347.64 1.52 1.23 2.96 1.57 4.41 1.17 5.029-.77 9.66-2.83 14.568l-.01.032-.02.048c-1.68 4.015-3.43 8.181-3.63 12.872-.4 9.053 7.35 15.979 13.01 21.038l.01.012 1.1.99c1.41 1.27 3.73 3.77 3.4 6.22-.1.76-.47 1.63-.87 2.54-.38.86-.74 1.72-1 2.62-.86 3.03-.42 6.06-.03 8.74.16 1.04.31 2.08.38 3.12.21 3.17-1.16 4.6-3.79 7.05-1.87 1.73-3.98 3.7-5.25 6.76-1.26 3.04-1.32 5.85-.17 8.34 2.46 5.3 9.63 7.61 16.58 9.84l.02.008c4.51 1.448 9.6 3.086 11.21 5.152 2.27 2.92 3.03 6.66 3.83 10.61.68 3.39 1.39 6.9 3.11 10.18 6.11 11.66 22.25 18.66 48 20.82zm-63.39-227.28c4.09-3.42 10.81-4.59 17.31-4.59 4.94 0 9.74.67 13.17 1.53 12.72 3.22 23.56 7.82 32.21 13.67 2.89 1.95 6.07 5.55 5.54 9.25-.4 2.818-2.86 5.318-5.29 7.788l-.03.032c-6.12 6.23-12.9 13.87-16.7 23.33-2.35 5.87-1.78 10.86 1.58 13.71 3.18 2.7 8.16 2.58 13.28-.33l1.53-.89.01-.009c2.38-1.406 4.61-2.731 6.72-2.551 2.32.21 4.24 2.35 5.1 4.39.81 1.91 1.07 4.47 1.34 7.18.62 6.23 1.48 14.76 11.56 15.78 1.48.157 2.88.034 4.23-.084l.07-.006c1.58-.14 3.07-.26 4.26.12 2.63.85 3.91 4.43 3.63 7.4-.28 2.98-1.61 5.85-3.03 8.9l-.97 2.12c-1.73 3.91-3.54 9.05-2.05 14.2 2.08 7.18 8.41 10.13 13.99 12.73l.21.097c2.29 1.074 4.46 2.091 6.21 3.343 7.04 5.01 9.96 13.1 8.02 22.18-.14.65-.3 1.3-.48 1.94-1.8 6.316-5.64 11.049-9.71 16.056l-.03.034-.03.034c-3.03 3.73-6.17 7.59-8.54 12.246-1.32 2.58-2.48 5.29-3.6 7.91v.009c-2.87 6.697-5.58 13.023-10.77 17.581-7.81 6.87-18.94 7.07-24.89 6.57-23.38-1.96-38.41-8.12-43.49-17.83-1.35-2.559-1.95-5.516-2.58-8.651l-.01-.039v-.015c-.9-4.406-1.83-8.97-4.91-12.925-2.68-3.429-8.16-5.189-13.95-7.049v-.001c-5.52-1.77-11.78-3.78-13.19-6.84l-.01-.011c-.17-.391-.68-1.531.27-3.819.81-1.93 2.31-3.33 3.89-4.8 2.66-2.47 5.97-5.55 5.57-11.54-.08-1.18-.25-2.37-.42-3.55-.34-2.33-.65-4.52-.12-6.4.15-.568.39-1.113.63-1.655.03-.089.07-.177.11-.265v-.002c.51-1.169 1.09-2.499 1.29-4.038.5-3.76-1.3-7.61-5.21-11.14l-1.12-1.01c-5.1-4.55-11.44-10.21-11.16-16.61.16-3.689 1.63-7.21 3.19-10.937l.03-.063c2.32-5.53 4.71-11.24 3.13-18.05-.43-1.851-1.12-3.532-1.8-5.161l-.05-.129c-.04-.098-.08-.197-.12-.295-.34-.812-.69-1.627-.97-2.465-.69-2.01-.77-3.56-.23-4.62 1.05-2.068 4.81-3.197 8.44-4.286l.01-.004c3.15-.94 6.4-1.92 8.88-3.71 10.97-7.937 5.25-20.459.66-30.527l-.01-.013c-2.19-4.8-4.26-9.34-4.51-12.85-.32-4.51.96-7.91 3.91-10.37z" fill="#1a4a67" fill-rule="evenodd"/><path d="m1184.39 796.01c-4.05-9.63-2.88-20.55-1.64-30.93.41-3.47.87-7.05 2.68-10.04 1.67-2.75 4.84-4.94 8.17-4.44.38.06.77.14 1.13.01.63-.24.82-1.02.9-1.68.54-4.49-.48-8.78-.5-13.24-.02-5.86 5.68-1.39 7.42.77 1.35 1.68 2.45 3.55 3.83 5.2.16.19.4.4.63.31s.26-.41.26-.66c.01-1.2.38-2.4 1.04-3.4.72-1.09 1.77-1.93 2.62-2.93 2.54-2.96 1.47-8.31 3.42-11.91 1.86-3.44 5.27-6.47 9.45-5.61 6.9 1.42 7.89 10.9 6.53 17.81-.62 3.16-1.04 7.2 1.7 8.88 2.91 1.78 19.11-11.56 24.69-15.08 2.56-1.61 6.08-3.07 8.38-1.11 2.22 1.9 1.48 5.47.31 8.15-1.34 3.07 4.93 5.13 6.5 7.11 5.8 7.29 2.64 19.68-1.27 27.01-4.09 7.67-10.14 14.39-16.56 20.18-5.26 4.75 6.47 15.95 1.86 21.39-7.45 8.77-37.93 8.06-49.7 6.94-10.01-.96-15.72-9.57-19.7-17.91-.76-1.59-1.47-3.2-2.15-4.82z" fill="#fff"/><path clip-rule="evenodd" d="m1206.04 821.557c1 .089 7.55.673 15.78.673 13 0 30.19-1.46 36.23-8.6 3.39-3.993 1.16-9.362-.64-13.679l-.01-.021-.02-.042c-1.23-2.969-2.63-6.313-1.44-7.378 7.76-7.01 13.38-13.86 17.16-20.95 3.72-6.97 8.11-21.14.99-30.08-.81-1.02-2.04-1.81-3.35-2.65-.77-.49-2.14-1.37-2.63-1.93 1.96-4.71 1.53-8.74-1.2-11.07-1.64-1.4-5.33-3.15-11.7.87-1.61 1.016-3.95 2.726-6.66 4.705l-.03.025-.18.132c-4.21 3.072-12.38 9.04-15.21 9.858-.46-.67-.73-2.2-.06-5.6 1.76-8.94-.22-19.36-8.72-21.11-4.82-1-9.61 1.7-12.49 7.03-1.12 2.072-1.44 4.419-1.71 6.496l-.01.054c-.26 2-.51 3.88-1.36 4.87-.21.248-.44.478-.66.709-.08.077-.16.154-.23.231l-.01.009c-.62.628-1.32 1.346-1.92 2.241-.39-.56-.8-1.11-1.23-1.64-.05-.06-5.02-6-9.33-4.47-1.16.41-3.09 1.67-3.08 5.47 0 1.84.17 3.65.34 5.46 0 .053.01.105.01.158.2 2.153.39 4.215.23 6.402-4.26-.2-7.99 2.74-9.88 5.86-2.15 3.544-2.64 7.563-3.06 11.111l-.01.049c-1.16 9.7-2.6 21.78 1.84 32.35.7 1.66 1.43 3.32 2.21 4.95 3.74 7.83 10.09 18.36 21.97 19.5zm-18.2-65.057c.95-1.58 2.8-3.15 4.85-3.15.19 0 .39.01.6.07.02.002.03.005.05.008.51.072 1.41.199 2.39-.168 1.06-.4 2.39-1.42 2.7-3.98.36-3.02.1-5.87-.16-8.63-.14-1.5-.28-3-.31-4.53.8.51 1.78 1.34 2.41 2.12.52.656 1.01 1.344 1.49 2.035.06.088.13.177.19.265.69 1 1.39 2 2.17 2.93 1.23 1.48 2.81 1.54 3.87 1.11.59-.24 1.97-1.05 2-3.24.01-.66.21-1.32.57-1.87.32-.482.73-.889 1.14-1.297.04-.041.08-.082.12-.123.05-.05.1-.101.15-.151.34-.35.68-.703 1-1.079 1.92-2.24 2.32-5.164 2.66-7.745l.01-.035c.23-1.77.45-3.44 1.09-4.62.44-.83 2.81-4.93 6.41-4.2 5.04 1.04 5.34 9.46 4.34 14.52l-.01.033c-.47 2.464-1.71 8.89 3.01 11.787 3.2 1.96 7.89-.78 21.29-10.59 2.63-1.93 4.9-3.59 6.36-4.51 2.32-1.46 4.3-1.99 5.05-1.35.72.63.54 2.64-.44 4.9-1.85 4.25 2.53 7.06 4.89 8.57.69.44 1.73 1.11 1.98 1.41 4.62 5.8 2.43 16.47-1.55 23.93-3.47 6.51-8.69 12.86-15.96 19.42-4.13 3.733-1.83 9.269.03 13.735l.01.025c1.28 3.05 2.72 6.52 1.56 7.89-5.68 6.69-31.08 7.51-47.29 5.96-8.94-.85-14.01-9.17-17.43-16.32-.74-1.55-1.43-3.12-2.1-4.7-3.86-9.2-2.57-19.99-1.43-29.51.37-3.15.76-6.4 2.29-8.92z" fill="#1a4a67" fill-rule="evenodd"/><path d="m1231.18 759.13-34.2 54.81z" fill="#fff"/><path d="m1196.98 816.75c-.51 0-1.02-.14-1.48-.43-1.32-.82-1.72-2.55-.9-3.87l34.19-54.81c.82-1.32 2.55-1.72 3.87-.9s1.72 2.55.9 3.87l-34.19 54.81c-.54.86-1.45 1.33-2.39 1.33z" fill="#1a4a67"/><path d="m1240.94 770.53-18.74 2.98z" fill="#fff"/><path d="m1222.2 776.32c-1.36 0-2.55-.98-2.77-2.37-.25-1.53.8-2.97 2.33-3.22l18.74-2.98c1.54-.25 2.97.8 3.22 2.33s-.8 2.97-2.33 3.22l-18.74 2.98c-.15.03-.3.04-.45.04z" fill="#1a4a67"/><path d="m1130.91 822.45c-1.17 0-2.25-.73-2.66-1.89l-54.19-157.12c-.51-1.47.27-3.07 1.74-3.57s3.07.27 3.57 1.74l54.19 157.12c.51 1.47-.27 3.07-1.74 3.57-.3.1-.6.15-.91.15z" fill="#fff"/><path d="m1108.75 761.94c-.1 0-.19 0-.28-.01l-35.27-3.53c-1.54-.15-2.67-1.53-2.52-3.08.15-1.54 1.54-2.71 3.07-2.52l35.27 3.53c1.54.15 2.67 1.53 2.52 3.08-.14 1.45-1.36 2.53-2.79 2.53z" fill="#fff"/><path d="m1094.16 715.62c-.17 0-.34-.01-.51-.05l-29.91-5.51c-1.53-.28-2.54-1.75-2.25-3.27.28-1.53 1.74-2.54 3.27-2.26l29.91 5.51c1.53.28 2.54 1.75 2.25 3.27-.25 1.36-1.44 2.31-2.76 2.31z" fill="#fff"/><path d="m1101.42 736.59c-.69 0-1.38-.25-1.92-.76-1.13-1.06-1.19-2.84-.13-3.97l24.8-26.49c1.06-1.13 2.84-1.19 3.97-.13s1.19 2.84.13 3.97l-24.8 26.49c-.55.6-1.3.89-2.05.89z" fill="#fff"/><path clip-rule="evenodd" d="m621.909 194.45 1.07 2.6 46.71-19.24-1.07-2.6c-7.01-17.03-23.18-26.56-36.08-21.25-6.39 2.63-10.98 8.4-12.92 16.25-1.86 7.53-1.05 16.14 2.29 24.24zm12.78-35.3c1.76-.72 3.61-1.07 5.5-1.07 8.17 0 17 6.5 22.08 16.71l-36.14 14.89c-2.05-6.19-2.43-12.54-1.05-18.12 1.5-6.07 4.91-10.47 9.61-12.41z" fill="#e3e5fc" fill-rule="evenodd"/><path d="m621.27 187.61c-7.94 3.27-12.35 11.03-9.79 17.23l19.16 84.89c2.56 6.2 11.15 8.6 19.09 5.33l58.8-24.23-57.76-95.38z" fill="#8bdeec"/><path d="m725.36 250.7-44.27-74.55c-2.56-6.2-11.15-8.6-19.09-5.33l-11.24 4.63 57.76 95.38 7.04-2.9c7.95-3.27 12.36-11.03 9.8-17.23z" fill="#37c1d3"/><path d="m448.94 314.9 8.88 27.96 23.88 5.25-7.18-11.71s-11.75-19.49-7.5-31.76-18.08 10.26-18.08 10.26z" fill="#fff"/><path clip-rule="evenodd" d="m455.64 345.26 31.91 7.01-10.61-17.32c-3.07-5.11-10.38-20.35-7.25-29.39l.003-.01c.434-1.261 1.739-5.055-1.073-6.81-1.52-.96-4.71-2.92-21.66 14.19l-1.2 1.21zm20.21-1.32-15.84-3.48-7.88-24.78c4.06-4 8.69-8.1 11.74-10.3-3.18 13.29 7.75 31.65 8.25 32.48z" fill="#1a4a67" fill-rule="evenodd"/><path d="m494.439 326.76c28.4-31.97 90.58-99.25 116.13-133.41 1.34-1.79 2.71-3.68 2.98-5.87.34-2.77-1.13-5.4-2.33-7.94-2.83-5.98-4.34-12.54-4.39-19.12-.03-3.26.35-6.69 2.26-9.38 1.91-2.68 5.74-4.3 8.76-2.87-.56 10.57 1.35 21.26 5.54 31.03 2.71-4.3 5.42-8.59 8.12-12.89 2.76 14.34-9 26.94-15.3 40.18-3.19 6.71-44.24 53.72-48.48 59.86-23.61 34.17-29.69 46.99-53.18 68.32-6.23 5.66-12.68 11.46-20.64 14.43-7.96 2.98-17.91 2.5-23.95-3.36z" fill="#fff"/><path clip-rule="evenodd" d="m468 347.77c4.35 4.23 10.26 5.92 16.07 5.92 3.81 0 7.58-.73 10.79-1.93 8.571-3.207 15.456-9.457 21.531-14.973l.019-.017c18.674-16.966 26.407-28.49 40.434-49.396l.036-.054.66-.984c3.633-5.411 7.692-11.458 12.48-18.376 1.54-2.22 8.81-10.87 16.51-20.02 17.04-20.24 30.22-36.06 32.2-40.22 1.66-3.5 3.79-7.07 5.85-10.52l.006-.011c5.838-9.797 11.873-19.923 9.664-31.389l-1.34-6.98-8.91 14.14c-2.64-7.92-3.8-16.33-3.36-24.62l.1-1.88-1.7-.81c-4.47-2.13-9.74.25-12.25 3.78-2.54 3.58-2.8 8.01-2.78 11.03.07 6.96 1.68 13.98 4.67 20.3l.4.84c.97 2 1.88 3.9 1.68 5.55-.17 1.4-1.16 2.82-2.44 4.53-19.83 26.5-62.07 73.35-92.92 107.55-8.75 9.7-16.63 18.44-22.89 25.48l-26.83 20.81zm24.92-1.29c-5.56 2.08-12.94 2.46-18.36-.74l21.6-16.75.38-.35c6.28-7.07 14.21-15.87 23.04-25.65l.095-.105c30.911-34.281 73.185-81.162 93.145-107.845l.009-.012c1.329-1.779 3.142-4.205 3.511-7.198.407-3.282-.965-6.129-2.181-8.649l-.019-.041-.38-.8c-2.64-5.58-4.07-11.79-4.12-17.94-.02-3.61.51-5.99 1.75-7.73.79-1.1 2.21-2.01 3.57-2.19-.18 10.17 1.82 20.44 5.85 29.83l2.11 4.92 5.4-8.57c-1.52 5.87-4.96 11.65-8.54 17.65-2.13 3.56-4.32 7.25-6.1 10.98-1.818 3.814-19.399 24.723-31.179 38.734l-.241.286c-8.47 10.06-15.15 18.01-16.84 20.45-5.09 7.36-9.37 13.74-13.18 19.42-13.8 20.58-21.4 31.91-39.58 48.42-5.98 5.43-12.17 11.05-19.74 13.88z" fill="#1a4a67" fill-rule="evenodd"/><path d="m794.839 530.2 23.67 46.53-15.38 10.55-21.69-50.21c-.01 0 7.64-6.91 13.4-6.87z" fill="#fff"/><path clip-rule="evenodd" d="m778.06 536.34 23.84 55.19 20.23-13.87-25.57-50.25-1.71-.01h-.06c-6.64 0-14.38 6.81-15.24 7.59zm26.29 46.69-19.5-45.15c2.13-1.66 5.54-3.96 8.36-4.66l21.67 42.59z" fill="#1a4a67" fill-rule="evenodd"/><path d="m888.419 599.91s-13.28 4.14-38.72 5.72-59.31-1.53-65.3-3.66c-9.11-3.23-2.12-31.24 6.36-31.18s11.76 11.56 26.73 1.43c12.82-8.68 23.03 7.93 45.33 12.5s31.33 6.41 25.6 15.19z" fill="#d1d3d4"/><path clip-rule="evenodd" d="m783.449 604.62c5.21 1.85 28.5 4.26 50.93 4.26 5.3 0 10.55-.13 15.49-.44 25.334-1.571 38.667-5.623 39.37-5.837l.01-.003.96-.3.55-.85c2.13-3.27 2.66-6.06 1.63-8.54-2.267-5.455-11.152-7.276-28.967-10.929l-.053-.011c-8.76-1.8-15.59-5.55-21.62-8.87l-.015-.009c-9.064-4.976-16.88-9.267-25.835-3.201-8.458 5.722-11.91 3.716-16.272 1.181l-.018-.011c-2.45-1.43-5.24-3.05-8.84-3.08h-.05c-6.61 0-11.3 9.55-12.87 18.45-1.68 9.55.41 16.35 5.6 18.19zm-.05-17.21c1.48-8.44 5.33-13.81 7.33-13.81h.02c2.115.01 3.941 1.074 6.044 2.3l.016.01.014.008c4.848 2.819 10.877 6.325 22.256-1.378 5.85-3.96 10.88-1.53 19.99 3.48 6.06 3.34 13.6 7.48 23.33 9.48l.073.015c12.679 2.604 23.62 4.85 24.747 7.555.2.48-.03 1.35-.63 2.44-3.49.95-16.1 4.02-37.06 5.32-25.72 1.59-59.13-1.71-64.19-3.51-2.2-.78-3.02-5.79-1.94-11.91z" fill="#1a4a67" fill-rule="evenodd"/><path d="m744.5 508.93c2.9 6.75 4.98 13.87 8.49 20.33 4.93 9.08 12.91 17.92 11.29 28.12-.6 3.82-2.12 8.75 1.18 10.76 2.46 1.5 5.66-.22 7.58-2.37 4.15-4.66 6.03-11.69 11.68-14.33 5.05-2.36 11.06-.2 16.53-1.24 9.19-1.75 14.98-12.02 24.2-13.63-.18-2.6-3.35-3.59-5.73-4.65-5.03-2.24-8.24-7.15-11.15-11.82-10.48-16.81-20.76-33.87-28.08-52.27-1.55-3.88-2.97-7.85-5.21-11.37-1.99-3.15-4.58-5.87-7.28-8.44-5.37-5.1-11.26-9.65-17.54-13.56-8.53-5.32-20.04-9.95-29.61-4.48-7.57 4.33-13.8 15.45-12.35 24.23 1.62 9.82 11.1 17.66 17.08 24.95 7.47 9.13 14.25 18.91 18.92 29.77z" fill="#fff"/><path clip-rule="evenodd" d="m763.99 570.55c1.12.68 2.3.97 3.48.97 2.87 0 5.76-1.73 7.66-3.88 1.653-1.859 2.924-3.967 4.158-6.015l.082-.135c1.91-3.19 3.72-6.19 6.53-7.51 2.303-1.072 5.14-.932 8.146-.783l.064.003c2.49.13 5.05.26 7.66-.24 5.239-.998 9.293-4.227 13.216-7.351l.024-.019c3.59-2.86 6.99-5.56 10.92-6.25l2.49-.44-.17-2.52c-.27-3.989-4.01-5.581-6.5-6.641l-.02-.009-.87-.37c-4.12-1.83-6.92-5.95-9.91-10.74-10.53-16.88-20.58-33.56-27.86-51.82l-.62-1.58-.006-.015c-1.349-3.425-2.747-6.98-4.814-10.245-2.31-3.65-5.34-6.71-7.72-8.97-5.5-5.22-11.55-9.9-17.99-13.91-12.65-7.88-23.89-9.45-32.49-4.53-9.01 5.16-15.3 17.58-13.73 27.13 1.366 8.309 7.578 15.086 13.068 21.075l.042.045c.128.141.257.281.385.421 1.476 1.612 2.915 3.184 4.185 4.739 8.61 10.5 14.49 19.74 18.51 29.08 1.05 2.41 1.98 4.88 2.91 7.35 1.66 4.39 3.38 8.93 5.7 13.21 1.104 2.031 2.358 4.045 3.621 6.074.086.139.172.277.259.416 4.21 6.72 8.18 13.07 7.1 19.85-.072.468-.161.952-.25 1.445l-.03.165-.002.008c-.68 3.69-1.705 9.254 2.772 11.992zm-41.75-138.12c2.56-1.46 5.32-2.06 8.14-2.06 6.52 0 13.34 3.21 18.59 6.5 6.12 3.81 11.86 8.26 17.09 13.22 2.28 2.16 4.88 4.79 6.85 7.9 1.79 2.82 3.03 5.97 4.34 9.31l.63 1.6c7.44 18.68 18.07 36.29 28.31 52.72l.016.026c2.688 4.307 6.365 10.199 12.374 12.874l.95.41c.23.09.51.21.82.35-3.254 1.487-6.069 3.731-8.824 5.927l-.016.013c-3.55 2.83-6.9 5.5-10.78 6.24-1.94.37-4.07.27-6.32.15l-.02-.001c-3.574-.18-7.277-.366-10.86 1.311-4.37 2.04-6.71 5.93-8.97 9.7-1.18 1.96-2.29 3.8-3.63 5.31s-3.19 2.34-4.01 1.84c-1.18-.72-.62-3.75-.17-6.18l.037-.202c.097-.53.193-1.051.273-1.548 1.4-8.86-3.32-16.41-7.89-23.71-.104-.166-.207-.332-.311-.498-1.187-1.902-2.369-3.798-3.399-5.702-2.14-3.94-3.72-8.1-5.38-12.51l-.138-.361c-.923-2.429-1.843-4.847-2.862-7.229-4.23-9.84-10.38-19.51-19.33-30.43-1.44-1.76-3.09-3.56-4.78-5.4l-.078-.085c-5.186-5.663-10.538-11.508-11.622-18.145-1.19-7.2 4.04-17.38 10.97-21.34z" fill="#1a4a67" fill-rule="evenodd"/><path d="m853.24 434.5 55.7 6.85-.41 19.2-57.68-10.66c0-.01-1.26-10.52 2.39-15.39z" fill="#fff"/><path clip-rule="evenodd" d="m848.31 452.27 62.97 11.64.53-25.05-59.84-7.35-.98 1.3c-4.2 5.62-3.07 16.22-2.93 17.41zm57.48 4.91-52.3-9.67c-.13-2.82.01-7.17 1.24-10l51.34 6.31z" fill="#1a4a67" fill-rule="evenodd"/><path d="m949.47 377.62s.55 14.39-4.98 40.03-12.82 53.92-17.97 57.94-37.2-1.84-34.75-10.21 15.29-8.13 9.01-26c-5.38-15.31 14.71-20.37 25.73-41.04 11.03-20.67 15.47-29.04 22.96-20.72z" fill="#d1d3d4"/><path clip-rule="evenodd" d="m893.16 472.94c5.57 3.78 17.73 6.73 26.45 6.73 3.81 0 6.97-.56 8.65-1.86 4.91-3.83 11.3-23.87 18.99-59.56 5.55-25.69 5.07-40.13 5.04-40.73l-.04-1.02-.68-.76c-2.77-3.07-5.49-4.4-8.29-4.06-6.121.749-10.467 8.895-19.201 25.266l-.039.074c-4.32 8.11-10.14 13.73-15.28 18.69l-.009.008c-7.716 7.457-14.38 13.896-10.611 24.602 3.546 10.079.496 12.884-3.358 16.429l-.012.011c-2.18 2-4.64 4.26-5.69 7.83-.51 1.73-.66 5.13 4.08 8.35zm50.79-95.68c.05-.01.1-.01.15-.01.79 0 1.75.71 2.58 1.51 0 3.7-.37 17.17-4.93 38.29-8.23 38.24-14.28 54.24-16.95 56.32-2.48 1.81-21.25-.01-28.62-5.18-1.14-.8-1.82-1.61-1.7-2.02.596-2.056 2.199-3.531 4.053-5.236l.037-.034.003-.003c4.299-3.949 9.646-8.86 4.867-22.447-2.47-7 1.25-11.01 9.22-18.7l.063-.062c5.15-4.979 11.547-11.165 16.337-20.158l.026-.05c6.508-12.196 11.648-21.831 14.864-22.22z" fill="#1a4a67" fill-rule="evenodd"/><path d="m606.25 462.1c-15.5 5.18-20.96 20.96-26.07 36.49-3.7 11.26-5.73 23.08-5.98 34.93-.15 6.7.65 14.21 5.75 18.55 2.82 2.39 6.54 3.42 10.19 4.03 26.28 4.43 52.7-9.3 71.75-27.93s32.67-41.99 48.91-63.12c7.24-9.42 16.38-19.14 28.24-19.87 13.49-.83 24.41 10.11 36.53 16.08 13 6.4 27.47 10.08 41.76 12.18 14.75 2.16 22.91 2.97 37.06 8.63 5.52 2.21 11.36 10.26 16.51 11.71 15.44 4.35 5.2-3.99 7.37-7.96 2.79-5.09 5.13-13.52 3.74-18.29-2.41-8.23-3.35-17.37-3.02-25.93.21-5.49 4.78-9.4 7.35-14.05 5.15-11.24-28.2-6.67-41.95-7.25-16.04-.67-31.8-4.41-47.26-8.75-17.34-4.87-34.47-10.52-51.3-16.93-12.2-4.64-25.05-9.78-37.9-7.53-17.55 3.07-29.58 18.64-42.22 31.19-14.65 14.55-24.28 22.68-43.37 30.54" fill="#fff"/><path d="m600.22 559.75c-3.56 0-7.08-.29-10.55-.87-3.52-.59-8.01-1.66-11.54-4.66-6.33-5.38-6.88-14.42-6.75-20.76.27-12.17 2.33-24.19 6.13-35.75 5.02-15.25 10.7-32.54 27.84-38.28l1.79 5.33c-14.47 4.84-19.46 20.02-24.29 34.7-3.63 11.03-5.59 22.5-5.85 34.11-.18 8.24 1.34 13.44 4.76 16.35 2.49 2.12 6.03 2.93 8.84 3.4 22.49 3.81 47.78-6.1 69.32-27.17 12.7-12.42 23.2-27.33 33.36-41.75 4.91-6.97 9.99-14.18 15.28-21.07 7.18-9.33 17.1-20.15 30.3-20.96 10.32-.64 19.09 4.9 27.54 10.25 3.4 2.16 6.91 4.39 10.41 6.11 11.35 5.59 25.12 9.6 40.93 11.92l3.97.58c12.4 1.79 20.59 2.97 33.72 8.22 3.11 1.24 6.06 3.85 8.91 6.37 2.59 2.29 5.28 4.67 7.33 5.25 2.33.66 3.81.94 4.72 1.05-.05-.15-.11-.3-.16-.43-.75-2.01-1.78-4.75-.42-7.23 2.59-4.73 4.62-12.35 3.51-16.15-2.4-8.19-3.49-17.47-3.14-26.83.17-4.62 2.77-8.19 5.05-11.35.99-1.36 1.92-2.64 2.65-3.96.03-.09.3-.75.12-1.02-2.07-3.11-18.49-2.54-27.3-2.24-4.67.16-9.09.32-12.43.18-16.96-.71-33.73-4.87-47.9-8.85-17.36-4.88-34.7-10.6-51.54-17.01l-1.18-.45c-11.59-4.42-23.57-8.99-35.24-6.94-13.71 2.4-24.22 13.34-34.37 23.91-2.12 2.2-4.22 4.39-6.35 6.5-15.35 15.25-25.39 23.37-44.28 31.15l-2.14-5.2c18.13-7.47 27.36-14.94 42.47-29.94 2.09-2.08 4.16-4.24 6.25-6.41 10.78-11.23 21.93-22.84 37.46-25.56 13.2-2.31 25.92 2.54 38.21 7.23l1.18.45c16.68 6.35 33.86 12.02 51.06 16.85 13.86 3.89 30.23 7.96 46.61 8.65 3.13.13 7.44-.02 12-.18 17.13-.59 28.62-.59 32.17 4.73.89 1.33 1.64 3.56.22 6.67-.99 1.81-2.07 3.29-3.11 4.73-1.99 2.75-3.88 5.35-3.99 8.26-.32 8.64.72 17.53 2.92 25.03 1.63 5.58-.83 14.69-3.97 20.43-.07.38.47 1.8.75 2.56.72 1.94 1.72 4.59-.14 6.61-2.01 2.18-5.78 1.68-11.22.14-3.29-.93-6.32-3.61-9.52-6.45-2.49-2.2-5.06-4.48-7.27-5.36-12.51-5-20.02-6.09-32.44-7.88l-3.98-.58c-16.38-2.41-30.71-6.59-42.59-12.44-3.77-1.86-7.41-4.17-10.94-6.4-8.04-5.1-15.61-9.91-24.18-9.39-10.87.67-19.34 9.87-26.19 18.78-5.22 6.79-10.26 13.95-15.15 20.88-10.3 14.63-20.95 29.75-34.02 42.53-19.58 19.19-42.25 29.61-63.64 29.61z" fill="#1a4a67"/><path d="m488.6 336.01c19.92 5.68 17.28 6.84 32.32 21.09 12.77 12.11 29.91 39.33 36.54 55.65 4.42 10.86 13.26 22.82 22.53 30 10.68 8.27 23.33 7.89 29.24 22.24 9.93 24.12 2.25 88.22-33.14 85.33-14.18-1.16-28.48-8.64-37.47-19.69-10.82-13.31-12.09-30.85-20.78-45.15-7.96-13.1-19.97-22.9-28.98-35.18-9.44-12.87-15.47-27.74-21.49-42.41-6.91-16.83-15.86-31.95-14.45-50.81.64-8.53 2.81-17.35 8.56-23.67 5.75-6.31 18.9.26 27.12 2.6z" fill="#37c1d3"/><path clip-rule="evenodd" d="m575.84 553.13c.84.07 1.67.1 2.49.1 9.53 0 17.9-4.6 24.32-13.38 14.31-19.59 16.71-57.54 9.15-75.91-4.27-10.369-11.818-13.859-19.128-17.239l-.002-.001-.057-.026c-3.672-1.702-7.461-3.458-10.923-6.134-8.66-6.71-17.36-18.3-21.64-28.84-6.66-16.4-23.99-44.1-37.21-56.63-3.11-2.95-5.46-5.33-7.41-7.31-7.92-8.04-10.15-9.9-26.07-14.44-1.57-.45-3.32-1.05-5.17-1.69l-.039-.014c-8.434-2.907-18.9-6.516-24.771-.076-5.35 5.86-8.47 14.39-9.29 25.35-1.19 15.988 4.818 29.586 10.627 42.734l.003.006c1.37 3.08 2.73 6.18 4.03 9.34l.29.71.022.053c5.913 14.413 12.03 29.323 21.508 42.237 3.888 5.309 8.35 10.18 12.667 14.891l.173.189c5.7 6.21 11.59 12.63 16.01 19.9 3.64 5.99 5.91 12.52 8.3 19.43 3.09 8.92 6.29 18.15 12.7 26.03 9.41 11.56 24.51 19.5 39.42 20.72zm-112.29-217.82c1.16-1.27 2.92-1.76 5.01-1.76 3.97 0 9.123 1.756 13.596 3.281l.204.069c1.95.68 3.8 1.32 5.46 1.79 15.05 4.29 16.36 5.62 23.61 12.98 1.98 2.02 4.38 4.44 7.55 7.45 12.72 12.05 29.43 38.8 35.87 54.67 4.7 11.56 13.89 23.79 23.41 31.17 3.94 3.057 8.028 4.951 11.97 6.778l.09.042.017.008c6.893 3.186 12.846 5.939 16.273 14.262 6.97 16.94 4.42 52.77-8.49 70.45-5.85 8.01-13.18 11.73-21.83 11.01-13.43-1.09-27.04-8.24-35.51-18.66-5.773-7.099-8.663-15.43-11.722-24.25l-.028-.08-.056-.16c-2.372-6.83-4.825-13.89-8.754-20.35-4.7-7.74-10.78-14.37-16.66-20.78l-.167-.182c-4.218-4.603-8.572-9.355-12.283-14.418-9.08-12.38-15.07-26.98-20.86-41.1l-.29-.71c-1.32-3.21-2.71-6.36-4.09-9.48l-.028-.063c-5.77-13.077-11.22-25.43-10.132-39.987.72-9.67 3.36-17.06 7.84-21.98z" fill="#1a4a67" fill-rule="evenodd"/><path d="m604.73 462.81c6.62-2.7 16.83-12.06 20.7-15.75-4.01 1.61-6.99 4.83-11.61 3.51-6.69-1.9-13.37-3.81-20.03-5.79-62.3-24.96-85.03-66.39-85.03-66.39s8.18 8.77-15.92-13.11-17.49-2.79-17.49-2.79 17.81 27.37 46.5 58.23 66.18 38.12 66.18 38.12c4.73 1.24 9.48 2.43 14.22 3.42.87.16 1.67.35 2.48.55z" fill="#fff"/><path clip-rule="evenodd" d="m604.09 465.54.87.21.83-.34c7.05-2.88 17.44-12.37 21.57-16.32l10.56-10.08-13.54 5.44c-1.31.52-2.46 1.16-3.57 1.78-2.58 1.44-4.16 2.22-6.22 1.64-6.68-1.9-13.35-3.81-19.75-5.7-51.44-20.6-75.68-52.94-81.93-62.43-.217-1.251-1.288-2.406-2.056-3.233l-.034-.037-15.31-16.41 4.16 7.59c-1.427-1.27-3.016-2.713-4.805-4.336l-.125-.114c-10.9-9.9-16.89-12.92-20.67-10.42-3.81 2.51-2.01 8.76-1.37 10.62l.3.61c.18.28 18.28 27.92 46.8 58.61 28.98 31.17 66.14 38.66 67.53 38.92 3.96 1.04 9.17 2.37 14.35 3.45.84.18 1.62.36 2.41.55zm-80.18-46.75c-26.59-28.6-43.98-54.49-46.01-57.55-.39-1.27-.63-2.79-.56-3.61 1.16.25 4.79 1.71 13.62 9.72l.261.237c9.117 8.273 13.754 12.481 16.389 14.343 5.69 9.06 30.11 43.4 85.38 65.53 6.659 1.98 13.358 3.89 20.058 5.799l.002.001c.29.09.57.15.85.21-3.22 2.6-6.65 5.06-9.44 6.38-.53-.12-1.07-.24-1.64-.36-5.06-1.06-10.18-2.37-14.26-3.43-.36-.07-36.91-7.42-64.65-37.27z" fill="#1a4a67" fill-rule="evenodd"/><path d="m517.21 369.46s-35.09-51.87-50.58-30.69 33.17 70.89 33.17 70.89l24.93-35.12z" fill="#37c1d3"/><path clip-rule="evenodd" d="m497.8 411.63 2.35 2.4 28.54-40.2-9.46-6.39c-3.7-5.4-25.6-36.24-43.02-36.56h-.27c-4.59 0-8.58 2.15-11.57 6.23-16.7 22.84 31.38 72.42 33.43 74.52zm-28.9-71.21c1.94-2.64 4.24-3.93 7.04-3.93h.17c12.79.23 32.33 25.01 38.78 34.54l.3.45 5.59 3.77-21.3 30c-14.08-15.07-41.49-49.91-30.58-64.83z" fill="#1a4a67" fill-rule="evenodd"/><path d="m493.28 18.33h-101.26c-3.11 0-5.65-2.54-5.65-5.65v-6.35001c0-3.11 2.54-5.649997 5.65-5.649997h101.26c3.11 0 5.65 2.539997 5.65 5.649997v6.35001c0 3.11-2.54 5.65-5.65 5.65z" fill="#e6e7e8"/><path d="m493.28 48.28h-101.26c-3.11 0-5.65-2.54-5.65-5.65v-6.35c0-3.11 2.54-5.65 5.65-5.65h101.26c3.11 0 5.65 2.54 5.65 5.65v6.35c0 3.11-2.54 5.65-5.65 5.65z" fill="#e6e7e8"/><path d="m493.28 78.23h-101.26c-3.11 0-5.65-2.54-5.65-5.65v-6.35c0-3.11 2.54-5.65 5.65-5.65h101.26c3.11 0 5.65 2.54 5.65 5.65v6.35c0 3.11-2.54 5.65-5.65 5.65z" fill="#e6e7e8"/><path d="m493.28 108.18h-101.26c-3.11 0-5.65-2.54-5.65-5.65v-6.35c0-3.11 2.54-5.65 5.65-5.65h101.26c3.11 0 5.65 2.54 5.65 5.65v6.35c0 3.11-2.54 5.65-5.65 5.65z" fill="#e6e7e8"/><path d="m262.47 648.89h-217.5002c-24.73 0-44.96003438-20.23-44.96003438-44.96v-532.38c0-24.73 20.23003438-44.96 44.96003438-44.96h217.5002c24.73 0 44.96 20.23 44.96 44.96v532.37c0 24.73-20.23 44.97-44.96 44.97z" fill="#e6e7e8"/><path d="m242.96 590.83h-178.4902c-24.73 0-44.96-20.23-44.96-44.96v-453.4c0-24.73 20.23-44.96 44.96-44.96h178.4902c24.73 0 44.96 20.23 44.96 44.96v453.4c.01 24.72-20.23 44.96-44.96 44.96z" fill="#fff"/><path d="m182.68 40.82h-57.92c-1.41 0-2.56-1.15-2.56-2.56s1.15-2.56 2.56-2.56h57.92c1.41 0 2.56 1.15 2.56 2.56s-1.16 2.56-2.56 2.56z" fill="#e3e5fc"/><path d="m153.72 633.89c8.808 0 15.95-7.141 15.95-15.95s-7.142-15.95-15.95-15.95c-8.809 0-15.95 7.141-15.95 15.95s7.141 15.95 15.95 15.95z" fill="#1a4a67"/><path d="m222.3 526h-137.1704c-15.57 0-28.32-12.74-28.32-28.32 0-15.57 12.74-28.32 28.32-28.32h137.1704c15.57 0 28.32 12.74 28.32 28.32 0 15.57-12.74 28.32-28.32 28.32z" fill="#1a4a67"/><path d="m252.72 135.97h-82.64c-3.77 0-6.85-3.08-6.85-6.85s3.08-6.85 6.85-6.85h82.64c3.77 0 6.85 3.08 6.85 6.85s-3.08 6.85-6.85 6.85z" fill="#8bdeec"/><path d="m252.72 167.35h-82.64c-3.77 0-6.85-3.08-6.85-6.85s3.08-6.85 6.85-6.85h82.64c3.77 0 6.85 3.08 6.85 6.85 0 3.76-3.08 6.85-6.85 6.85z" fill="#8bdeec"/><path d="m152.54 427.97c-.87-.71-1.01-2.01-.29-2.88l18.79-23.07c.71-.87 2.01-1.01 2.88-.29.87.71 1.01 2.01.29 2.88l-18.79 23.07c-.71.87-2.01 1-2.88.29z" fill="#e6e7e8"/><path d="m154.89 427.97c.87-.71 1.01-2.01.29-2.88l-18.79-23.07c-.71-.87-2.01-1.01-2.88-.29-.87.71-1.01 2.01-.29 2.88l18.79 23.07c.71.87 2.01 1 2.88.29z" fill="#e6e7e8"/><path clip-rule="evenodd" d="m81 119.16v2.81h38.98v-2.81c0-14.07-8.74-25.52-19.49-25.52s-19.49 11.44-19.49 25.52zm19.49-19.9c6.98 0 12.78 7.44 13.73 17.09h-27.46c.95-9.65 6.75-17.09 13.73-17.09z" fill="#e3e5fc" fill-rule="evenodd"/><path d="m83.2198 114.28c-6.38 0-11.6 4.08-11.6 9.06l-10.86 63.72c0 4.98 5.22 9.06 11.6 9.06h47.2402l-12.68-81.84z" fill="#8bdeec"/><path d="m136.85 187.05-9.31-63.72c0-4.98-5.22-9.06-11.6-9.06h-9.03l12.68 81.84h5.65c6.39 0 11.61-4.07 11.61-9.06z" fill="#37c1d3"/><path d="m252.72 282.74h-82.64c-3.77 0-6.85-3.08-6.85-6.85s3.08-6.85 6.85-6.85h82.64c3.77 0 6.85 3.08 6.85 6.85 0 3.76-3.08 6.85-6.85 6.85z" fill="#8bdeec"/><path d="m252.72 314.11h-82.64c-3.77 0-6.85-3.08-6.85-6.85s3.08-6.85 6.85-6.85h82.64c3.77 0 6.85 3.08 6.85 6.85s-3.08 6.85-6.85 6.85z" fill="#8bdeec"/><path clip-rule="evenodd" d="m81 265.93v2.81h38.98v-2.81c0-14.07-8.74-25.52-19.49-25.52s-19.49 11.44-19.49 25.52zm19.49-19.9c6.98 0 12.78 7.44 13.73 17.09h-27.46c.95-9.65 6.75-17.1 13.73-17.09z" fill="#e3e5fc" fill-rule="evenodd"/><path d="m83.2198 261.04c-6.38 0-11.6 4.08-11.6 9.06l-10.86 63.72c0 4.98 5.22 9.06 11.6 9.06h47.2402l-12.68-81.84z" fill="#8bdeec"/><path d="m136.85 333.82-9.31-63.72c0-4.98-5.22-9.06-11.6-9.06h-9.03l12.68 81.84h5.65c6.39 0 11.61-4.08 11.61-9.06z" fill="#37c1d3"/><path d="m133.4 205.01c8.969 0 16.24-7.271 16.24-16.24s-7.271-16.24-16.24-16.24-16.24 7.271-16.24 16.24 7.271 16.24 16.24 16.24z" fill="#1a4a67"/><path d="m133.4 353.98c8.969 0 16.24-7.271 16.24-16.24s-7.271-16.24-16.24-16.24-16.24 7.271-16.24 16.24 7.271 16.24 16.24 16.24z" fill="#1a4a67"/><path d="m153.72 459.42c-6.01 0-10.93-4.92-10.93-10.93s4.92-10.93 10.93-10.93 10.93 4.92 10.93 10.93c0 6.02-4.92 10.93-10.93 10.93z" fill="#1a4a67"/><path d="m646.129 601.62h-48.92c-12.66 0-23.02-10.36-23.02-23.02s10.36-23.02 23.02-23.02h48.92c12.66 0 23.02 10.36 23.02 23.02.01 12.66-10.35 23.02-23.02 23.02z" fill="#37c1d3"/><path d="m372.43 553.22c-12.66 0-23.02-10.36-23.02-23.02s10.36-23.02 23.02-23.02 23.02 10.36 23.02 23.02-10.36 23.02-23.02 23.02z" fill="#e6e7e8"/><path clip-rule="evenodd" d="m368.819 489.97c5.47 8.37 13.91 13.22 21.56 13.22 3.12 0 6.11-.81 8.72-2.5 8.99-5.88 10.06-20.25 2.36-32.03l-1.54-2.35-32.64 21.31zm27.2 6c-5.85 3.82-14.77.75-20.84-6.8l22.99-15.02c4.48 8.6 3.7 18-2.15 21.82z" fill="#e3e5fc" fill-rule="evenodd"/><path d="m402.269 473.96c5.34-3.49 7.48-9.76 4.76-13.93l-25.74-59.29c-2.72-4.17-9.32-4.73-14.67-1.24l-39.55 25.83 55.36 61.59z" fill="#8bdeec"/><path d="m317.569 442.34 42.63 48.26c2.72 4.17 9.32 4.73 14.67 1.24l7.56-4.93-55.36-61.59-4.73 3.09c-5.35 3.49-7.49 9.76-4.77 13.93z" fill="#37c1d3"/><path clip-rule="evenodd" d="m402.719 415.66.82 2.69 48.34-14.72-.82-2.69c-2.55-8.38-7.38-15.55-13.6-20.2-6.47-4.84-13.68-6.41-20.3-4.38-6.62 2.01-11.73 7.32-14.41 14.95-2.57 7.32-2.58 15.97-.03 24.35zm16.08-33.93c1.34-.41 2.72-.61 4.12-.61 3.7 0 7.55 1.4 11.18 4.12 4.6 3.45 8.33 8.59 10.67 14.68l-37.4 11.39c-1.45-6.36-1.23-12.71.68-18.14 2.07-5.9 5.89-9.96 10.75-11.44z" fill="#e3e5fc" fill-rule="evenodd"/><path d="m402.74 408.78c-8.22 2.5-13.34 9.8-11.39 16.22l11.01 86.33c1.96 6.42 10.28 9.62 18.5 7.12l60.84-18.53-48.44-100.43z" fill="#8bdeec"/><path d="m500.37 481.48-36.99-78.42c-1.96-6.42-10.28-9.62-18.5-7.12l-11.63 3.54 48.44 100.43 7.28-2.22c8.23-2.5 13.35-9.8 11.4-16.21z" fill="#37c1d3"/><path d="m538.869 602.35h-159.64c-12.66 0-23.02-10.36-23.02-23.02s10.36-23.02 23.02-23.02h159.64c12.66 0 23.02 10.36 23.02 23.02s-10.36 23.02-23.02 23.02z" fill="#8bdeec"/><path d="m494.2 551.01h-70.31c-12.66 0-23.02-10.36-23.02-23.02s10.36-23.02 23.02-23.02h70.31c12.66 0 23.02 10.36 23.02 23.02.01 12.66-10.36 23.02-23.02 23.02z" fill="#37c1d3"/><path d="m447.89 819.05c13.326 0 24.13-10.803 24.13-24.13s-10.804-24.13-24.13-24.13c-13.327 0-24.13 10.803-24.13 24.13s10.803 24.13 24.13 24.13z" fill="#1a4a67"/><path d="m447.89 811.98c9.422 0 17.06-7.638 17.06-17.06s-7.638-17.06-17.06-17.06-17.06 7.638-17.06 17.06 7.638 17.06 17.06 17.06z" fill="#fff"/><path d="m618.85 819.05c13.326 0 24.13-10.803 24.13-24.13s-10.804-24.13-24.13-24.13c-13.327 0-24.13 10.803-24.13 24.13s10.803 24.13 24.13 24.13z" fill="#1a4a67"/><path d="m618.85 811.98c9.422 0 17.06-7.638 17.06-17.06s-7.638-17.06-17.06-17.06-17.06 7.638-17.06 17.06 7.638 17.06 17.06 17.06z" fill="#fff"/><g fill="#1a4a67"><path d="m423.72 762.36c-1.57 0-45.48-.38-54.02-33.93-3.22-12.66-10.38-51.81-18.67-97.16-12.39-67.82-27.82-152.22-32.94-161.94-7.89-14.97-15.05-18.11-40.59-17.67-25.4.43-119.18-.03-120.13-.04l.03-5.62c.94 0 94.66.47 120 .04 25.87-.44 36.08 2.49 45.66 20.67 5.53 10.49 20.39 91.81 33.5 163.55 8.27 45.24 15.41 84.31 18.59 96.78 7.59 29.77 48.3 29.68 48.59 29.69h245.42v5.62h-245.4c0 .01-.02.01-.04.01z"/><path d="m677.49 606.99h-327.74v-5.62h323.4l33.44-127.93h-384.96v-5.62h392.24z"/><path d="m410.498 471.288h5.61981v137.975h-5.61981z" transform="matrix(.96793316 -.25120788 .25120788 .96793316 -105.227887 118.233051)"/><path d="m513.12 470.63h5.62v130.99h-5.62z"/><path d="m581.723 603.437h137.972v5.62009h-137.972z" transform="matrix(.2513954 -.96788447 .96788447 .2513954 -148.576788 1014.776375)"/><path d="m333.19 512.48h362.77v5.62h-362.77z"/><path d="m341.83 557.46h344.96v5.62h-344.96z"/></g><path d="m455.95 230.89c6.31 1.37 16.94 8.36 18.85 14.52 1.27 4.08 2.59 8.43 5.31 11.82 3.46 4.33 8.36 6.39 12.89 9.29 4.45 2.85-1.76 4.06-3.7 6.72-2.17 2.98-2.33 6.37-2.64 10.09-.63 7.66 1.03 22.09-3.6 28.43-6.24 8.54-29.35 5.09-36.84.89-1.49-.83-18.7-10.09-18.3-11.12z" fill="#fff"/><path clip-rule="evenodd" d="m444.84 315.1c4.35 2.43 13.61 4.78 22.4 4.78 7.47 0 14.59-1.69 18.1-6.46 3.93-5.38 3.95-14.63 3.96-22.78 0-2.64 0-5.14.16-7.07l.05-.63c.26-3.27.47-5.85 2.06-8.03.321-.445 1.189-1.015 1.926-1.498.041-.028.083-.055.124-.082l.017-.011c1.677-1.098 3.753-2.457 3.743-4.899-.01-2.42-2.16-3.81-2.87-4.26-1.154-.743-2.346-1.438-3.52-2.123l-.08-.047-.095-.055c-3.235-1.89-6.287-3.672-8.515-6.465-2.344-2.922-3.574-6.879-4.811-10.859l-.009-.031c-2.37-7.66-14.17-14.97-20.93-16.44l-2.33-.51-28.92 72.87c-1.02 2.6-1.26 3.22 18.58 14.07zm1.74-5.46c-9.63-5.26-13.66-7.72-15.34-8.86l26.39-66.48c5.71 2.16 13.21 7.76 14.55 12.07 1.28 4.14 2.73 8.83 5.75 12.6 2.895 3.622 6.563 5.758 10.116 7.829l.054.031c.166.098.333.196.501.295.735.432 1.475.867 2.209 1.315-.09.06-.17.11-.25.16-1.21.78-2.58 1.67-3.52 2.97-2.519 3.435-2.828 7.197-3.126 10.842l-.004.048-.05.63c-.18 2.16-.19 4.77-.19 7.53-.01 6.93-.03 15.56-2.88 19.47-4.83 6.61-25.81 4.24-33.2.1z" fill="#1a4a67" fill-rule="evenodd"/><path d="m415.07 236.9c1.28-1.68.12-4.07.27-6.18.19-2.7 2.54-4.7 4.79-6.21 12.37-8.34 27.71-12.18 42.55-10.66 5.92.61 4.36 2.08 9.42 5.22 6.46 4 14.54 18.79 5.08 24.76-9.99 6.31-21.82-.3-11.85 1.2-5.83-.87-8.6 4.1-11.76 8.87-12.07 18.21-10.87 40.78-4.62 61-33.41-9.19-54.04-34.23-45.45-60.7 3.7-11.4 12.79-27.76 2.9-38.47-6.23-6.74-16.47-7.93-25.6-7.01-8.81.89-17.88 3.59-24.03 9.97-9.65 10.03-9.35 26.22-4.68 39.33s12.92 24.7 17.7 37.77c3.84 10.51 3.96 24.87-5.93 30.09-8.92 4.7-19.37-1.25-28.94-4.42-11.99-3.97-26.41-2.94-35.65 5.66-9.25 8.6-10.36 25.63-.29 33.26-5.04 3.67-7.48 10.56-5.88 16.59 1.61 6.02 7.16 10.79 13.36 11.46 8.46.92 16.69-5.1 25.07-3.61 4.71.84 8.65 3.93 12.97 5.99s9.97 2.92 13.5-.31c1.96-1.79 2.82-4.45 3.96-6.84 6.06-12.65 20.92-18.87 28.23-30.84 14.17-23.21-.41-58.65-2.12-83.42-.56-8.14.16-17.43 6.45-22.63 5.73-4.73 12.6-8.32 18.89-12.25.54.79 1.1 1.59 1.66 2.38z" fill="#1a4a67"/><path d="m448.039 279.41s-14.36-3.78-12.93 7.25 15.18 12.65 15.18 12.65" fill="#fff"/><path d="m417.95 226.19s3.52 1.86 1.33 7.16c-2.19 5.31-12.64 17.43-13.19 13.71s-8.04-.67-4.61-5.98 2.65-3.54 6.44-9.6c3.64-5.82-.51-8.3 1.64-10.7 3.77-4.19 6.66 3.27 8.39 5.41z" fill="#8bdeec"/></g></svg>