<svg height="32" viewBox="0 0 32 32" width="32" xmlns="http://www.w3.org/2000/svg"><path d="m16 22a6 6 0 1 1 6-6 5.9364 5.9364 0 0 1 -6 6zm0-10a3.9123 3.9123 0 0 0 -4 4 3.9123 3.9123 0 0 0 4 4 3.9123 3.9123 0 0 0 4-4 3.9123 3.9123 0 0 0 -4-4z"/><path d="m29.3047 11.044-2.3606-4.0878a1.9977 1.9977 0 0 0 -2.3728-.8946l-2.4341.8233a11.0419 11.0419 0 0 0 -1.312-.7583l-.5037-2.5186a2 2 0 0 0 -1.9615-1.608h-4.72a2 2 0 0 0 -1.9615 1.608l-.5037 2.5186a10.9666 10.9666 0 0 0 -1.3267.7534l-2.4194-.8184a1.9977 1.9977 0 0 0 -2.3728.8946l-2.3606 4.0878a2.0006 2.0006 0 0 0 .4119 2.5025l1.9309 1.6968c-.0171.2514-.0381.5014-.0381.7567 0 .2578.01.5127.0278.7656l-1.9206 1.688a2.0006 2.0006 0 0 0 -.4119 2.5025l2.3606 4.0879a1.9977 1.9977 0 0 0 2.3728.8946l2.4341-.8233a10.9736 10.9736 0 0 0 1.312.7583l.5037 2.5186a2 2 0 0 0 1.9615 1.6078h4.36v-2h-4.36l-.71-3.5508a9.0953 9.0953 0 0 1 -2.6948-1.5713l-3.4474 1.1661-2.36-4.0878 2.7253-2.3951a8.9263 8.9263 0 0 1 -.007-3.1279l-2.7186-2.3892 2.3611-4.0878 3.4267 1.1591a9.0305 9.0305 0 0 1 2.7141-1.5644l.7106-3.5509h4.72l.71 3.5508a9.0978 9.0978 0 0 1 2.6948 1.5713l3.4468-1.166 2.36 4.0878-2.7978 2.4522 1.3185 1.5039 2.8-2.4536a2.0006 2.0006 0 0 0 .4124-2.5024z"/><path d="m23 26.18-2.59-2.59-1.41 1.41 4 4 7-7-1.41-1.41z"/><path d="m0 0h32v32h-32z" fill="none"/></svg>