<svg width="102" height="82" viewBox="0 0 102 82" fill="none" xmlns="http://www.w3.org/2000/svg">
<path fill-rule="evenodd" clip-rule="evenodd" d="M29.6499 36.1262L43.7001 1H15.0262C-3.62239 30.6884 -3.72835 48.1917 15.0262 81H43.7001L29.6499 45.8738V36.1262ZM72.9474 36.1262V45.8738L59.6141 81H86.9976C105.321 52.3127 106.011 34.892 86.9976 1H59.6141L72.9474 36.1262Z" fill="#4B5CCB"/>
<path d="M72.9474 36.1262C56.7932 25.9738 47.5784 22.4055 29.6499 36.1262V45.8738C46.5586 58.4305 56.0387 56.5506 72.9474 45.8738V36.1262Z" fill="black"/>
<path d="M29.6499 36.1262L43.7001 1H15.0262C-3.62239 30.6884 -3.72835 48.1917 15.0262 81H43.7001L29.6499 45.8738M29.6499 36.1262C47.5784 22.4055 56.7932 25.9738 72.9474 36.1262M29.6499 36.1262V45.8738M72.9474 36.1262L59.6141 1H86.9976C106.011 34.892 105.321 52.3127 86.9976 81H59.6141L72.9474 45.8738M72.9474 36.1262V45.8738M72.9474 45.8738C56.0387 56.5506 46.5586 58.4305 29.6499 45.8738" stroke="black"/>
</svg>
